<svg xmlns="http://www.w3.org/2000/svg" xmlns:xlink="http://www.w3.org/1999/xlink" width="75" height="75" viewBox="0 0 75 75">
  <defs>
    <clipPath id="clip-path">
      <rect id="Rectangle_17" data-name="Rectangle 17" width="75" height="75" transform="translate(414 1568)" fill="#fff" stroke="#707070" stroke-width="1"/>
    </clipPath>
  </defs>
  <g id="art" transform="translate(-414 -1568)" clip-path="url(#clip-path)">
    <path id="Path_110" data-name="Path 110" d="M155.355,428.409a5.109,5.109,0,1,0,6.675,2.765,5.115,5.115,0,0,0-6.675-2.765Zm2.933,7.08a2.554,2.554,0,1,1,1.383-3.338,2.558,2.558,0,0,1-1.383,3.338Zm0,0" transform="translate(274.305 1181.248)"/>
    <path id="Path_111" data-name="Path 111" d="M152.592,347.7a5.109,5.109,0,1,0,0-3.911,5.076,5.076,0,0,0,0,3.911Zm2.36-2.933a2.555,2.555,0,1,1,0,1.955,2.538,2.538,0,0,1,0-1.955Zm0,0" transform="translate(274.306 1253.751)"/>
    <path id="Path_112" data-name="Path 112" d="M217.146,288.7a5.11,5.11,0,1,0-2.764-2.765,5.1,5.1,0,0,0,2.764,2.765Zm-.4-5.7a2.554,2.554,0,1,1,0,1.955,2.534,2.534,0,0,1,0-1.955Zm0,0" transform="translate(223.04 1305)"/>
    <path id="Path_113" data-name="Path 113" d="M217.126,499.622a5.109,5.109,0,1,0-2.766-6.676,5.08,5.08,0,0,0,2.766,6.676Zm-.405-5.7a2.555,2.555,0,1,1,1.382,3.338,2.536,2.536,0,0,1-1.382-3.338Zm0,0" transform="translate(223.055 1129.999)"/>
    <path id="Path_114" data-name="Path 114" d="M304.5,499.637a5.109,5.109,0,1,0-2.765-2.765,5.1,5.1,0,0,0,2.765,2.765Zm.977-7.08a2.555,2.555,0,1,1-1.382,3.338,2.554,2.554,0,0,1,1.382-3.338Zm0,0" transform="translate(150.565 1129.986)"/>
    <g id="Group_33" data-name="Group 33" transform="translate(420 1571.51)">
      <path id="Path_115" data-name="Path 115" d="M368.231,438.268a5.11,5.11,0,1,0-1.948-.389,5.117,5.117,0,0,0,1.948.389Zm-2.353-6.087a2.555,2.555,0,1,1,1.382,3.338,2.558,2.558,0,0,1-1.382-3.338Zm0,0" transform="translate(-320.699 -390.286)"/>
      <path id="Path_116" data-name="Path 116" d="M178.328,205.074a3.727,3.727,0,0,0-5.21-.028l-19.554,18.365a8.73,8.73,0,0,1-.264-5.165c.31-1.564.661-3.336-.47-4.876-1.02-1.388-3.014-2.2-6.274-2.551a29.425,29.425,0,0,0-19.292,4.635,1.277,1.277,0,0,0,1.4,2.135,26.87,26.87,0,0,1,17.614-4.231c3.026.327,4.112,1.01,4.49,1.525.434.591.3,1.477.023,2.866a12.357,12.357,0,0,0-.317,2.49,12.826,12.826,0,0,0,1.08,5.058l-7.924,7.443c-5.779,1.667-5.907,5.106-6.008,7.878-.068,1.868-.128,3.481-1.565,4.919a1.277,1.277,0,0,0,.264,2.009,7.511,7.511,0,0,0,3.728.872,12.353,12.353,0,0,0,6.029-1.645,8.737,8.737,0,0,0,4.7-7.126l7.327-7.8a12.845,12.845,0,0,0,5.058,1.08,12.282,12.282,0,0,0,2.49-.317c1.39-.276,2.276-.411,2.867.022.515.379,1.2,1.464,1.525,4.491a26.824,26.824,0,1,1-49.1-11.812,1.277,1.277,0,1,0-2.134-1.4,29.379,29.379,0,1,0,53.772,12.94c-.353-3.261-1.164-5.254-2.552-6.274-1.539-1.131-3.312-.78-4.876-.47a8.732,8.732,0,0,1-5.166-.264l18.365-19.554a3.727,3.727,0,0,0-.027-5.21ZM144.8,244.56a9.32,9.32,0,0,1-5.746,1.235,10.456,10.456,0,0,0,1.12-5.084c.093-2.524.157-4.241,3.733-5.388l4.307,4.306a6.433,6.433,0,0,1-3.414,4.93Zm31.691-36.026-27.005,28.754-3.375-3.375,28.754-27.006a1.151,1.151,0,1,1,1.627,1.627Zm0,0" transform="translate(-114.003 -204.394)"/>
      <rect id="Rectangle_20" data-name="Rectangle 20" width="65" height="65" transform="translate(0 0.49)" fill="none"/>
    </g>
    <path id="Path_117" data-name="Path 117" d="M163.6,293.9a1.277,1.277,0,1,0,0-2.555h0a1.277,1.277,0,0,0,0,2.555Zm0,0" transform="translate(265.906 1294.643)"/>
  </g>
</svg>
