<svg xmlns="http://www.w3.org/2000/svg" xmlns:xlink="http://www.w3.org/1999/xlink" width="75" height="75" viewBox="0 0 75 75">
  <defs>
    <clipPath id="clip-path">
      <rect id="Rectangle_19" data-name="Rectangle 19" width="75" height="75" transform="translate(828 1566)" fill="#fff" stroke="#707070" stroke-width="1"/>
    </clipPath>
  </defs>
  <g id="biography" transform="translate(-828 -1566)" clip-path="url(#clip-path)">
    <g id="_006-biography" data-name="006-biography" transform="translate(833 1571.749)">
      <path id="Path_66" data-name="Path 66" d="M65.59,2.081a1.071,1.071,0,0,0-1.167.232L53.4,13.336V5.213A1.071,1.071,0,0,0,52.33,4.142H8.425A6.432,6.432,0,0,0,2,10.567V59.826a6.432,6.432,0,0,0,6.425,6.425h43.9A1.071,1.071,0,0,0,53.4,65.18V35.64L58.41,30.63A26.6,26.6,0,0,0,66.251,11.7V3.071a1.071,1.071,0,0,0-.661-.989ZM51.259,64.109H8.425a4.283,4.283,0,0,1,0-8.567H51.259Zm0-10.708H8.425A6.392,6.392,0,0,0,4.142,55.05V10.567A4.288,4.288,0,0,1,8.425,6.283H51.259v9.194L36.581,30.156a1.068,1.068,0,0,0-.314.757v9.194l-6.111,6.111,1.514,1.514,6.111-6.111h9.194a1.066,1.066,0,0,0,.757-.314l3.526-3.526Zm12.85-41.7A24.471,24.471,0,0,1,56.9,29.116L46.532,39.48H39.923L57.37,22.032l-1.514-1.514L38.409,37.965V31.356l25.7-25.7Z" transform="translate(-2 -2)" fill="#101318"/>
      <path id="Path_67" data-name="Path 67" d="M26.708,30.417A10.708,10.708,0,1,0,16,19.708,10.721,10.721,0,0,0,26.708,30.417Zm-5.267-3.966a5.316,5.316,0,0,1,10.535,0,8.515,8.515,0,0,1-10.535,0Zm3.126-8.884a2.142,2.142,0,1,1,2.142,2.142A2.144,2.144,0,0,1,24.567,17.567Zm2.142-6.425A8.556,8.556,0,0,1,33.73,24.6a7.485,7.485,0,0,0-3.85-4.183,4.283,4.283,0,1,0-6.344,0,7.485,7.485,0,0,0-3.85,4.183,8.556,8.556,0,0,1,7.022-13.461Z" transform="translate(-1.008 -1.504)" fill="#101318"/>
      <path id="Path_68" data-name="Path 68" d="M17,43H27.708v2.142H17Z" transform="translate(-0.937 0.905)" fill="#101318"/>
      <path id="Path_69" data-name="Path 69" d="M17,38H30.921v2.142H17Z" transform="translate(-0.937 0.55)" fill="#101318"/>
      <path id="Path_70" data-name="Path 70" d="M17,33H33.063v2.142H17Z" transform="translate(-0.937 0.196)" fill="#101318"/>
    </g>
  </g>
</svg>
