<svg xmlns="http://www.w3.org/2000/svg" xmlns:xlink="http://www.w3.org/1999/xlink" width="75" height="75" viewBox="0 0 75 75">
  <defs>
    <clipPath id="clip-path">
      <rect id="Rectangle_18" data-name="Rectangle 18" width="75" height="75" transform="translate(729 1568)" fill="#fff" stroke="#707070" stroke-width="1"/>
    </clipPath>
  </defs>
  <g id="children" transform="translate(-729 -1568)" clip-path="url(#clip-path)">
    <g id="_008-baby-boy" data-name="008-baby-boy" transform="translate(745 1572)">
      <g id="Group_16" data-name="Group 16" transform="translate(14.524 62.026)">
        <g id="Group_15" data-name="Group 15">
          <path id="Path_75" data-name="Path 75" d="M219.344,478.65a1.3,1.3,0,0,0-1.685.721,1.515,1.515,0,0,1-1.4.928H211.52a1.515,1.515,0,0,1-1.4-.928,1.3,1.3,0,1,0-2.406.964,4.075,4.075,0,0,0,3.81,2.556h4.735a4.075,4.075,0,0,0,3.81-2.556A1.3,1.3,0,0,0,219.344,478.65Z" transform="translate(-207.616 -478.556)" fill="#1c2630"/>
        </g>
      </g>
      <g id="Group_18" data-name="Group 18" transform="translate(0)">
        <g id="Group_17" data-name="Group 17">
          <path id="Path_76" data-name="Path 76" d="M137.028,55.442a6.394,6.394,0,0,0-3.069-4.314,6.441,6.441,0,0,0,2.3-5.961A16.34,16.34,0,0,0,127.2,32.876,14.866,14.866,0,0,0,120.407,8.4a5.607,5.607,0,0,0,1.313-3.62A4.784,4.784,0,0,0,116.941,0h0a4.341,4.341,0,0,0-2.805.974,3.537,3.537,0,0,0-1.277,2.746,1.3,1.3,0,1,0,2.592,0,.959.959,0,0,1,.355-.764,1.756,1.756,0,0,1,1.135-.364h0a2.189,2.189,0,0,1,2.187,2.187,3.058,3.058,0,0,1-3.057,3.058h0c-.032,0-.063,0-.094,0A14.867,14.867,0,0,0,105.5,32.876a16.341,16.341,0,0,0-9.063,12.29,6.441,6.441,0,0,0,2.3,5.961A6.4,6.4,0,0,0,96.914,60.6l2.776,3.547a5.778,5.778,0,0,0,4.553,2.2,5.717,5.717,0,0,0,2.864-.765,5.787,5.787,0,0,0,2.463-7.143l-1.684-4.177a6.383,6.383,0,0,0-.394-.8H117a1.3,1.3,0,1,0,0-2.592h-11.97V48.14a.639.639,0,0,1,.638-.638h21.368a.639.639,0,0,1,.638.638v2.912a6.394,6.394,0,0,0-2.858,3.217l-1.684,4.177a5.787,5.787,0,0,0,2.463,7.143,5.717,5.717,0,0,0,2.864.765,5.779,5.779,0,0,0,4.553-2.2l2.775-3.547A6.394,6.394,0,0,0,137.028,55.442Zm-32.961-32.73A12.283,12.283,0,1,1,116.35,34.995,12.3,12.3,0,0,1,104.067,22.712Zm1.415,32.526,1.684,4.177a3.169,3.169,0,0,1-5.434,3.137l-2.776-3.547a3.805,3.805,0,1,1,6.526-3.768Zm21.561-12.92a1.3,1.3,0,0,0-1.3,1.3v1.3H106.962v-1.3a1.3,1.3,0,1,0-2.592,0v1.568a3.234,3.234,0,0,0-1.934,2.958v1.83A3.862,3.862,0,0,1,99,45.552a13.684,13.684,0,0,1,8.647-10.784,14.842,14.842,0,0,0,17.4,0A13.684,13.684,0,0,1,133.7,45.552a3.862,3.862,0,0,1-3.435,4.418V48.14a3.234,3.234,0,0,0-1.925-2.954V43.614A1.3,1.3,0,0,0,127.043,42.318Zm6.7,16.688-2.775,3.547a3.169,3.169,0,0,1-5.434-3.138l1.684-4.177a3.805,3.805,0,1,1,6.526,3.768Z" transform="translate(-95.555)" fill="#1c2630"/>
        </g>
      </g>
      <g id="Group_20" data-name="Group 20" transform="translate(25.295 50.872)">
        <g id="Group_19" data-name="Group 19">
          <path id="Path_77" data-name="Path 77" d="M292.932,392.88a1.3,1.3,0,1,0,.38.916A1.306,1.306,0,0,0,292.932,392.88Z" transform="translate(-290.72 -392.5)" fill="#1c2630"/>
        </g>
      </g>
      <g id="Group_22" data-name="Group 22" transform="translate(16.742 26.849)">
        <g id="Group_21" data-name="Group 21">
          <path id="Path_78" data-name="Path 78" d="M232.353,207.44a1.3,1.3,0,0,0-1.823.191,2.25,2.25,0,0,1-3.5,0,1.3,1.3,0,1,0-2.014,1.632,4.843,4.843,0,0,0,7.528,0A1.3,1.3,0,0,0,232.353,207.44Z" transform="translate(-224.726 -207.151)" fill="#1c2630"/>
        </g>
      </g>
      <g id="Group_24" data-name="Group 24" transform="translate(12.876 20.913)">
        <g id="Group_23" data-name="Group 23">
          <path id="Path_79" data-name="Path 79" d="M199.542,162.239a3.019,3.019,0,0,0-4.265,0,1.3,1.3,0,0,0,1.833,1.833.424.424,0,0,1,.6,0,1.3,1.3,0,0,0,1.833-1.833Z" transform="translate(-194.898 -161.357)" fill="#1c2630"/>
        </g>
      </g>
      <g id="Group_26" data-name="Group 26" transform="translate(23.691 20.913)">
        <g id="Group_25" data-name="Group 25">
          <path id="Path_80" data-name="Path 80" d="M282.985,162.238a3.019,3.019,0,0,0-4.265,0,1.3,1.3,0,1,0,1.833,1.833.424.424,0,0,1,.6,0,1.3,1.3,0,0,0,1.833-1.833Z" transform="translate(-278.34 -161.356)" fill="#1c2630"/>
        </g>
      </g>
    </g>
  </g>
</svg>
