<svg xmlns="http://www.w3.org/2000/svg" xmlns:xlink="http://www.w3.org/1999/xlink" width="75" height="75" viewBox="0 0 75 75">
  <defs>
    <clipPath id="clip-path">
      <rect id="Rectangle_15" data-name="Rectangle 15" width="75" height="75" transform="translate(602 1568)" fill="#fff" stroke="#707070" stroke-width="1"/>
    </clipPath>
  </defs>
  <g id="fantasy" transform="translate(-602 -1568)" clip-path="url(#clip-path)">
    <g id="_003-unicorn" data-name="003-unicorn" transform="translate(609.515 1574.707)">
      <ellipse id="Ellipse_3" data-name="Ellipse 3" cx="1.254" cy="1.254" rx="1.254" ry="1.254" transform="translate(51.119 44.307)" fill="#1c2630"/>
      <ellipse id="Ellipse_4" data-name="Ellipse 4" cx="1.254" cy="1.254" rx="1.254" ry="1.254" transform="translate(20.626 61.791) rotate(-4.069)" fill="#1c2630"/>
      <path id="Path_49" data-name="Path 49" d="M74.943,50.411,65.66,42.479l-.031-.025-3.341-2.675L77.852,13.544a1.254,1.254,0,0,0-1.885-1.6L52.355,31.823l-1.783-1.428L46.33,19.876a1.255,1.255,0,0,0-1.482-.743A11.541,11.541,0,0,0,40.925,21.2a8.893,8.893,0,0,0-3.3,5.72,6.462,6.462,0,0,0-9.061,5.837,6.466,6.466,0,0,0-4.731,8.522,6.458,6.458,0,0,0-2.809,8.781,6.468,6.468,0,0,0-.773,9.571,6.466,6.466,0,0,0,4.835,10.754,6.577,6.577,0,0,0,.832-.054q.255,1.5.566,3.029a1.254,1.254,0,0,0,1.229,1h7a1.254,1.254,0,0,0,0-2.507H28.743a66.986,66.986,0,0,1-1.12-20.3A34.6,34.6,0,0,1,31.552,38.68c3.427-6.128,7.755-8.131,7.793-8.149a1.254,1.254,0,0,0,.741-1.281,6.923,6.923,0,0,1,4.372-7.309l3.91,9.7a1.254,1.254,0,0,0,.379.51L64.046,44.4l9.269,7.919a6.292,6.292,0,0,1-6.5,10.595L55.44,58.191a1.254,1.254,0,0,0-1.076.055,11.505,11.505,0,0,1-4.013,1.268c-.041,0,.04-.007,0,0a11.352,11.352,0,0,1-5.559-.78,11.149,11.149,0,0,1-5.961-14.72,1.254,1.254,0,0,0-2.3-.994A13.663,13.663,0,0,0,49.985,62.065c.836,1.061,2.9,4.213,3.173,9.795h-7.1a1.254,1.254,0,0,0,0,2.507h8.38A1.254,1.254,0,0,0,55.7,73.114a21.189,21.189,0,0,0-2.972-11.519,13.741,13.741,0,0,0,2.29-.866l10.841,4.5a8.8,8.8,0,0,0,9.089-14.817ZM25.138,43.437a6.49,6.49,0,0,0,1.321,1.108A42.4,42.4,0,0,0,25.206,50.7a3.955,3.955,0,0,1-.069-7.26ZM22.6,52.016a6.489,6.489,0,0,0,2.337,1.246,58.1,58.1,0,0,0-.148,5.887,3.955,3.955,0,0,1-2.19-7.133Zm2.55,15.865a3.958,3.958,0,0,1-2.835-6.78,6.445,6.445,0,0,0,2.581.56q.183,3.005.635,6.2C25.407,67.87,25.279,67.878,25.151,67.88Zm2.124-25.847a3.991,3.991,0,0,1-.657-.755,3.958,3.958,0,0,1,2.4-6.049,6.452,6.452,0,0,0,.8,1.444c-.116.194-.232.39-.347.592a31.582,31.582,0,0,0-2.2,4.768Zm4.1-7.672a3.922,3.922,0,0,1-.226-.734,4.018,4.018,0,0,1-.077-.723,3.962,3.962,0,0,1,3.895-4.019,3.894,3.894,0,0,1,1.672.341,22.434,22.434,0,0,0-5.264,5.135Zm31.049-7.735,1.325,5.781-2.57,4.332-1.734-7.563c0-.012-.007-.022-.01-.034Zm3.18,2.653-1.024-4.468,7.342-6.181ZM54.35,33.421l2.928-2.465,1.35,5.891Z" transform="translate(-18.49 -10.191)" fill="#1c2630"/>
      <path id="Path_50" data-name="Path 50" d="M218.743,229.992c.146-.052,3.586-1.237,5.294,1.365a1.254,1.254,0,1,0,2.1-1.376c-2.243-3.417-6.374-3.029-8.245-2.346a1.254,1.254,0,0,0,.855,2.357Z" transform="translate(-192.176 -198.7)" fill="#1c2630"/>
      <path id="Path_51" data-name="Path 51" d="M254.782,7.517,257.8,9.166l1.649,3.016a1.254,1.254,0,0,0,2.2,0L263.3,9.166l3.016-1.649a1.254,1.254,0,0,0,0-2.2L263.3,3.668,261.647.652a1.254,1.254,0,0,0-2.2,0L257.8,3.668l-3.016,1.649a1.254,1.254,0,0,0,0,2.2Zm4.541-1.826a1.254,1.254,0,0,0,.5-.5l.726-1.327.726,1.327a1.254,1.254,0,0,0,.5.5l1.327.726-1.327.726a1.254,1.254,0,0,0-.5.5l-.726,1.327-.726-1.327a1.254,1.254,0,0,0-.5-.5L258,6.417Z" transform="translate(-224.594 0)" fill="#1c2630"/>
      <path id="Path_52" data-name="Path 52" d="M441.829,165.393a1.254,1.254,0,0,0,1.254-1.254v-.654h.653a1.254,1.254,0,0,0,0-2.507h-.653v-.654a1.254,1.254,0,1,0-2.507,0v.654h-.654a1.254,1.254,0,0,0,0,2.507h.654v.654A1.254,1.254,0,0,0,441.829,165.393Z" transform="translate(-386.001 -139.132)" fill="#1c2630"/>
    </g>
  </g>
</svg>
