<svg xmlns="http://www.w3.org/2000/svg" xmlns:xlink="http://www.w3.org/1999/xlink" width="75" height="75" viewBox="0 0 75 75">
  <defs>
    <clipPath id="clip-path">
      <rect id="Rectangle_16" data-name="Rectangle 16" width="75" height="75" transform="translate(529 1568)" fill="#fff" stroke="#707070" stroke-width="1"/>
    </clipPath>
  </defs>
  <g id="romance" transform="translate(-529 -1568)" clip-path="url(#clip-path)">
    <g id="_002-dove" data-name="002-dove" transform="translate(533 1574)">
      <path id="Path_43" data-name="Path 43" d="M29.8,273.006l-4.884.345a9.413,9.413,0,0,0-5.6-2.373,9.232,9.232,0,0,0-7.737,3.229c-.794-.642-1.5-1.332-2.093-1.921A15.133,15.133,0,0,0,8.13,271.04a1.28,1.28,0,0,0-1.617.063A8.873,8.873,0,0,0,3.8,276.514c-.375-.223-.729-.455-1.049-.692a1.28,1.28,0,0,0-1.949.551c-1.506,3.747-.88,7.56,1.81,11.024a19.971,19.971,0,0,0,4.061,3.843,16.2,16.2,0,0,1-3.954.33,2.21,2.21,0,0,0-2.077,1.247,2.9,2.9,0,0,0,.726,3.173,13.032,13.032,0,0,0,10.152,4.628,15.976,15.976,0,0,0,5.11-.864,17.338,17.338,0,0,0,8.129-5.779,18.353,18.353,0,0,0,3.8-10.541,16.076,16.076,0,0,0-.283-3.974l2.718-4.519a1.279,1.279,0,0,0-1.187-1.935Zm-22.351.866.239.235a29.056,29.056,0,0,0,2.518,2.278,9.3,9.3,0,0,0-.7,2.361,15.562,15.562,0,0,1-3.274-1.018A7.848,7.848,0,0,1,7.451,273.872Zm18.217,5.678a13.139,13.139,0,0,1,.33,3.767A15.068,15.068,0,0,1,15.811,297.33c-4.8,1.62-9.58.477-12.481-2.982a2.548,2.548,0,0,1-.166-.221c2.735-.016,5.454-.252,6.889-2.078a1.279,1.279,0,0,0-.371-1.9c-1.467-.839-8.23-5.083-6.965-11.3,2.363,1.365,5.486,2.512,7.486,2.512a3.977,3.977,0,0,0,.7-.056,1.279,1.279,0,0,0,1.054-1.227,6.663,6.663,0,0,1,7.188-6.544,6.874,6.874,0,0,1,4.4,2.036,1.281,1.281,0,0,0,1,.376l2.991-.211-1.715,2.851A1.279,1.279,0,0,0,25.668,279.549Z" transform="translate(-0.002 -237.165)" fill="#1c2630"/>
      <path id="Path_44" data-name="Path 44" d="M134.96,316.308a1.279,1.279,0,1,0,0,2.558h.007a1.279,1.279,0,1,0-.007-2.558Z" transform="translate(-116.579 -276.866)" fill="#1c2630"/>
      <path id="Path_45" data-name="Path 45" d="M296.809,291.572a16.185,16.185,0,0,1-3.953-.33,19.97,19.97,0,0,0,4.059-3.843c2.69-3.464,3.316-7.277,1.812-11.024a1.28,1.28,0,0,0-1.949-.551c-.32.237-.674.469-1.049.692a8.873,8.873,0,0,0-2.713-5.411,1.28,1.28,0,0,0-1.617-.063,15.133,15.133,0,0,0-1.358,1.247c-.6.588-1.3,1.279-2.093,1.921a9.233,9.233,0,0,0-7.737-3.23,9.413,9.413,0,0,0-5.6,2.373l-4.884-.345a1.279,1.279,0,0,0-1.187,1.934l2.715,4.521a16.2,16.2,0,0,0-.281,3.973,18.354,18.354,0,0,0,3.8,10.541,17.341,17.341,0,0,0,8.129,5.779,15.968,15.968,0,0,0,5.11.864,13.036,13.036,0,0,0,10.152-4.628,2.9,2.9,0,0,0,.726-3.173A2.21,2.21,0,0,0,296.809,291.572Zm-4.97-17.463.239-.235a7.847,7.847,0,0,1,1.217,3.856,15.554,15.554,0,0,1-3.274,1.018,9.3,9.3,0,0,0-.7-2.361A29.084,29.084,0,0,0,291.84,274.109Zm4.361,20.24c-2.9,3.46-7.684,4.6-12.481,2.983a15.068,15.068,0,0,1-10.187-14.014,13.273,13.273,0,0,1,.327-3.77,1.278,1.278,0,0,0-.146-.963L272,275.732l2.993.211a1.282,1.282,0,0,0,1-.376,6.874,6.874,0,0,1,4.4-2.036,6.663,6.663,0,0,1,7.188,6.544,1.279,1.279,0,0,0,1.054,1.227c1.9.34,5.522-.92,8.181-2.456,1.263,6.223-5.5,10.465-6.964,11.3a1.279,1.279,0,0,0-.371,1.9c1.436,1.826,4.155,2.062,6.89,2.078a2.541,2.541,0,0,1-.166.22Z" transform="translate(-234.028 -237.166)" fill="#1c2630"/>
      <path id="Path_46" data-name="Path 46" d="M359.581,316.308h-.007a1.283,1.283,0,1,0,.007,0Z" transform="translate(-312.461 -276.866)" fill="#1c2630"/>
      <path id="Path_47" data-name="Path 47" d="M130.48,39.092a1.28,1.28,0,0,0,1.777,0l7.684-7.411.033-.033a7.069,7.069,0,0,0,0-9.732,5.557,5.557,0,0,0-2.788-1.567,11.207,11.207,0,0,0-2.945-9.671,8.844,8.844,0,0,0-6.826-2.671,10.606,10.606,0,0,0-6.787,2.884l-.127.119c-.162.152-.336.315-.481.443-.144-.128-.317-.29-.478-.442l-.128-.12a10.615,10.615,0,0,0-6.788-2.884,8.84,8.84,0,0,0-6.825,2.671,11.283,11.283,0,0,0,0,15.549l.031.031,1.57,1.516a1.279,1.279,0,1,0,1.778-1.84l-1.553-1.5a8.7,8.7,0,0,1,.015-11.98c2.536-2.625,7.033-2.488,10.024.3l.125.117c.833.782,1.384,1.3,2.229,1.3s1.4-.516,2.23-1.3l.126-.117c2.991-2.8,7.488-2.932,10.025-.306a8.665,8.665,0,0,1,2.182,7.885A6.727,6.727,0,0,0,131.37,22a6.663,6.663,0,0,0-4.248-1.795,5.636,5.636,0,0,0-4.355,1.708,7.069,7.069,0,0,0,0,9.731l.032.032L123.85,32.7l-3.832,3.7-2.727-2.632a1.279,1.279,0,1,0-1.777,1.84l3.616,3.49a1.28,1.28,0,0,0,1.777,0l4.785-4.619Zm-5.871-15.4c1.412-1.464,3.712-1.039,5.031.2l.075.07a1.979,1.979,0,0,0,3.311,0l.074-.07c1.319-1.233,3.618-1.658,5.031-.2a4.49,4.49,0,0,1,.015,6.164l-6.777,6.537-6.774-6.537a4.489,4.489,0,0,1,.015-6.164Z" transform="translate(-89.555 -8)" fill="#1c2630"/>
      <path id="Path_48" data-name="Path 48" d="M169.429,178.539a1.282,1.282,0,1,0-.9-.369l0,0A1.271,1.271,0,0,0,169.429,178.539Z" transform="translate(-146.638 -154.489)" fill="#1c2630"/>
    </g>
  </g>
</svg>
