<svg xmlns="http://www.w3.org/2000/svg" width="137.098" height="56.407" viewBox="0 0 137.098 56.407">
  <g id="logo" transform="translate(-139 -19)">
    <g id="Group_29" data-name="Group 29" transform="translate(139 19)">
      <g id="Group_28" data-name="Group 28" transform="translate(0)">
        <path id="Path_103" data-name="Path 103" d="M778.79,114.549l-.091,0a1.388,1.388,0,0,1-1.381-1.293A16.332,16.332,0,0,0,774.9,106.7c-2.9-4.794-7.952-8.658-14.6-11.175a1.386,1.386,0,0,1-.9-1.3V64.755a1.386,1.386,0,1,1,2.772,0v28.53c8.641,3.488,13.025,8.5,15.192,12.142a18.6,18.6,0,0,1,2.713,7.658A1.384,1.384,0,0,1,778.79,114.549Z" transform="translate(-739.132 -63.369)" fill="#ccb05c"/>
        <path id="Path_104" data-name="Path 104" d="M788.509,115.187a1.385,1.385,0,0,1-2.421,1.348,23.043,23.043,0,0,0-4.662-5.4,24.388,24.388,0,0,0-14.652-6,1.385,1.385,0,0,1-1.293-1.383V74.246a1.386,1.386,0,1,1,2.771,0V102.49a27.435,27.435,0,0,1,15.08,6.632A25.207,25.207,0,0,1,788.509,115.187Z" transform="translate(-752.082 -66.06)" fill="#ccb05c"/>
        <path id="Path_105" data-name="Path 105" d="M797.238,118.837a1.385,1.385,0,0,1-1.941.267c-7.883-5.976-19.444-4.9-19.558-4.893a1.386,1.386,0,0,1-1.525-1.379V81.792a1.386,1.386,0,0,1,2.772,0v29.572c3.629-.114,12.931.183,19.986,5.531A1.386,1.386,0,0,1,797.238,118.837Z" transform="translate(-767.173 -68.2)" fill="#ccb05c"/>
        <path id="Path_106" data-name="Path 106" d="M757.953,88.194a1.848,1.848,0,0,1,1.848,1.848V123.12h37.776a1.848,1.848,0,0,1,0,3.7H757.953a1.848,1.848,0,0,1-1.848-1.848V90.042A1.848,1.848,0,0,1,757.953,88.194Z" transform="translate(-756.105 -70.409)" fill="#ccb05c"/>
      </g>
    </g>
    <path id="Path_107" data-name="Path 107" d="M9.664-3.349c5.126,0,8.881-3.462,8.881-8.229s-3.755-8.229-8.881-8.229S.783-16.344.783-11.578,4.538-3.349,9.664-3.349Zm0-4.294c-1.956,0-3.53-1.484-3.53-3.934s1.574-3.934,3.53-3.934,3.53,1.484,3.53,3.934S11.62-7.643,9.664-7.643Zm19.2-8.588a5.122,5.122,0,0,0-3.71,1.439v-1.214H20.32v12.3H25.4V-9.487c0-1.821.877-2.473,1.911-2.473.922,0,1.506.585,1.506,2.113v6.138H33.9v-7.015C33.9-14.59,31.7-16.232,28.864-16.232ZM36.1-3.709h5.081V-20.391H36.1ZM45.973-17c1.866,0,3.058-1.124,3.058-2.675,0-1.461-1.192-2.5-3.058-2.5s-3.058,1.124-3.058,2.585S44.107-17,45.973-17ZM43.432-3.709h5.081v-12.3H43.432ZM59.3-16.232a5.122,5.122,0,0,0-3.71,1.439v-1.214H50.761v12.3h5.081V-9.487c0-1.821.877-2.473,1.911-2.473.922,0,1.506.585,1.506,2.113v6.138h5.081v-7.015C64.341-14.59,62.138-16.232,59.3-16.232ZM79.854-9.869c0-4.159-3.125-6.363-6.767-6.363-3.979,0-6.97,2.63-6.97,6.363,0,3.665,2.923,6.385,7.442,6.385a6.845,6.845,0,0,0,5.373-1.978L76.279-8.138a3.757,3.757,0,0,1-2.563.9,2.378,2.378,0,0,1-2.473-1.439h8.543C79.809-9.037,79.854-9.509,79.854-9.869Zm-6.722-2.9a1.909,1.909,0,0,1,1.978,1.641H71.153A1.894,1.894,0,0,1,73.132-12.769Z" transform="translate(170.301 49.549)" fill="#ccb05c"/>
    <path id="Path_108" data-name="Path 108" d="M1.539-3.709h12.41V-7.823h-7.1V-19.447H1.539ZM17.794-17c1.866,0,3.058-1.124,3.058-2.675,0-1.461-1.192-2.5-3.058-2.5s-3.058,1.124-3.058,2.585S15.928-17,17.794-17ZM15.253-3.709h5.081v-12.3H15.253ZM30.789-16.232a4.282,4.282,0,0,0-3.125,1.057v-5.216H22.583V-3.709h4.834V-4.721a4.253,4.253,0,0,0,3.372,1.237c3.215,0,5.935-2.428,5.935-6.385S34-16.232,30.789-16.232ZM29.575-7.441c-1.124,0-2-.832-2-2.428s.877-2.406,2-2.406,2,.809,2,2.406S30.7-7.441,29.575-7.441ZM43.154-14.68v-1.326H38.32v12.3H43.4V-9.172a2.331,2.331,0,0,1,2.608-2.653,7.041,7.041,0,0,1,1.124.09v-4.5A5.052,5.052,0,0,0,43.154-14.68Zm10.814-1.551a11.157,11.157,0,0,0-5.531,1.394l1.619,3.35a5.548,5.548,0,0,1,3.148-.967c1.439,0,2.158.495,2.316,1.439H53.473c-3.822,0-5.621,1.326-5.621,3.71,0,2.113,1.551,3.822,4.564,3.822,1.731,0,2.9-.607,3.485-1.844v1.619h4.721v-6.61C60.623-14.411,58.195-16.232,53.968-16.232Zm-.022,9.69c-.764,0-1.214-.427-1.214-.989,0-.674.472-1.034,1.551-1.034h1.259v.854A1.608,1.608,0,0,1,53.946-6.542ZM67.66-14.68v-1.326H62.826v12.3h5.081V-9.172a2.331,2.331,0,0,1,2.608-2.653,7.041,7.041,0,0,1,1.124.09v-4.5A5.052,5.052,0,0,0,67.66-14.68ZM82.3-16.007,79.71-9.419,77.17-16.007H71.954L77.125-3.552a1.527,1.527,0,0,1-1.259.495,3.142,3.142,0,0,1-1.8-.652L72.381-.224a6.49,6.49,0,0,0,3.732,1.1c2.608,0,4.586-.967,5.935-4.339l5.059-12.545Z" transform="translate(188.991 74.53)" fill="#ccb05c"/>
  </g>
</svg>
